<?xml version="1.0" standalone="no"?>
<!DOCTYPE svg PUBLIC "-//W3C//DTD SVG 20010904//EN"
 "http://www.w3.org/TR/2001/REC-SVG-20010904/DTD/svg10.dtd">
<svg version="1.0" xmlns="http://www.w3.org/2000/svg"
 width="512.000000pt" height="512.000000pt" viewBox="0 0 512.000000 512.000000"
 preserveAspectRatio="xMidYMid meet">

<g transform="translate(0.000000,512.000000) scale(0.100000,-0.100000)"
fill="#000000" stroke="none">
<path d="M585 4411 c-168 -51 -293 -141 -408 -296 -73 -99 -109 -169 -144
-282 -23 -77 -26 -105 -26 -228 0 -159 13 -232 69 -383 69 -187 209 -416 381
-622 109 -132 386 -409 518 -519 55 -46 102 -88 104 -93 2 -5 -8 -42 -22 -81
-75 -214 -101 -357 -101 -562 -1 -149 2 -180 22 -250 74 -256 275 -404 548
-405 342 -1 712 320 1029 893 27 48 52 87 55 87 4 0 23 -46 44 -102 78 -214
205 -447 316 -580 115 -138 275 -245 425 -283 124 -32 318 -16 455 37 372 145
506 608 332 1155 l-26 81 103 109 c406 427 719 916 816 1277 71 262 52 490
-56 656 -56 87 -121 153 -205 210 -356 237 -832 118 -1424 -356 -243 -196
-609 -578 -795 -831 -33 -46 -62 -82 -65 -82 -3 0 -30 41 -60 91 -153 253
-378 538 -614 774 -249 249 -428 386 -641 489 -186 91 -283 115 -455 114 -80
0 -133 -6 -175 -18z m340 -333 c220 -63 454 -227 727 -507 247 -252 488 -576
628 -843 75 -143 109 -235 156 -420 l35 -143 -32 -75 c-209 -483 -510 -895
-739 -1014 -119 -61 -219 -71 -305 -30 -127 60 -151 332 -58 654 13 46 25 86
27 87 1 1 30 -9 63 -23 263 -105 554 16 619 258 65 246 -98 536 -322 573 -134
22 -300 -69 -421 -228 -25 -34 -50 -66 -54 -71 -12 -13 -174 131 -354 315
-225 230 -360 408 -457 604 -157 315 -141 554 50 757 123 130 249 161 437 106z
m3604 -74 c142 -42 242 -159 257 -301 31 -296 -230 -789 -690 -1305 -48 -54
-90 -98 -94 -98 -4 0 -27 28 -51 61 -56 77 -148 154 -231 193 -123 57 -262 38
-372 -51 -52 -42 -115 -125 -144 -188 -107 -232 6 -457 277 -552 97 -34 257
-43 338 -19 30 9 58 16 62 16 4 0 14 -39 23 -88 49 -268 20 -459 -84 -563 -66
-66 -154 -93 -278 -87 -137 7 -236 66 -340 200 -154 199 -271 498 -422 1075
l-82 312 26 45 c74 126 263 359 466 575 534 569 1043 863 1339 775z m-2821
-1784 c26 -51 29 -112 7 -134 -36 -36 -123 -39 -183 -7 -22 12 -22 12 -5 43
28 48 129 151 144 146 8 -2 24 -24 37 -48z m1890 26 c44 -23 152 -147 152
-174 0 -20 -113 -14 -173 8 -64 24 -91 50 -83 78 7 22 63 102 72 102 3 0 17
-6 32 -14z"/>
</g>
</svg>
