<?xml version="1.0" standalone="no"?>
<!DOCTYPE svg PUBLIC "-//W3C//DTD SVG 20010904//EN"
 "http://www.w3.org/TR/2001/REC-SVG-20010904/DTD/svg10.dtd">
<svg version="1.0" xmlns="http://www.w3.org/2000/svg"
 width="400.000000pt" height="400.000000pt" viewBox="0 0 400.000000 400.000000"
 preserveAspectRatio="xMidYMid meet">

<g transform="translate(0.000000,400.000000) scale(0.100000,-0.100000)"
fill="#000000" stroke="none">
<path d="M290 3465 l0 -245 245 0 245 0 0 245 0 245 -245 0 -245 0 0 -245z
m420 0 l0 -175 -175 0 -175 0 0 175 0 175 175 0 175 0 0 -175z"/>
<path d="M430 3465 l0 -105 105 0 105 0 0 105 0 105 -105 0 -105 0 0 -105z"/>
<path d="M850 3640 l0 -70 35 0 c33 0 35 -2 35 -35 0 -33 -2 -35 -35 -35 -33
0 -35 -2 -35 -35 0 -33 2 -35 35 -35 33 0 35 2 35 35 0 33 2 35 35 35 l35 0 0
-210 0 -210 -70 0 -70 0 0 35 c0 33 2 35 35 35 l35 0 0 70 0 70 -35 0 -35 0 0
-70 0 -70 -105 0 -105 0 0 -35 c0 -33 -2 -35 -35 -35 -33 0 -35 2 -35 35 l0
35 -70 0 -70 0 0 -35 c0 -33 2 -35 35 -35 33 0 35 -2 35 -35 l0 -35 -105 0
-105 0 0 -175 0 -175 70 0 70 0 0 70 0 70 35 0 c33 0 35 2 35 35 0 33 2 35 35
35 l35 0 0 70 0 70 35 0 c33 0 35 2 35 35 l0 35 105 0 105 0 0 -35 0 -35 -70
0 -70 0 0 -35 c0 -33 -2 -35 -35 -35 l-35 0 0 -105 0 -105 35 0 c33 0 35 -2
35 -35 l0 -35 -70 0 -70 0 0 35 c0 33 -2 35 -35 35 -33 0 -35 -2 -35 -35 0
-33 2 -35 35 -35 l35 0 0 -105 0 -105 -35 0 -35 0 0 -70 0 -70 -35 0 c-33 0
-35 2 -35 35 0 33 -2 35 -35 35 -33 0 -35 2 -35 35 0 33 -2 35 -35 35 -33 0
-35 -2 -35 -35 0 -33 2 -35 35 -35 l35 0 0 -70 0 -70 -35 0 c-33 0 -35 -2 -35
-35 0 -33 2 -35 35 -35 33 0 35 -2 35 -35 0 -33 -2 -35 -35 -35 -33 0 -35 -2
-35 -35 l0 -35 70 0 70 0 0 -35 0 -35 70 0 70 0 0 -70 0 -70 35 0 c33 0 35 -2
35 -35 0 -33 2 -35 35 -35 33 0 35 -2 35 -35 l0 -35 -70 0 -70 0 0 -140 0
-140 -35 0 -35 0 0 140 0 140 -70 0 -70 0 0 35 c0 33 2 35 35 35 33 0 35 2 35
35 0 33 2 35 35 35 33 0 35 2 35 35 0 33 -2 35 -35 35 -33 0 -35 -2 -35 -35 0
-33 -2 -35 -35 -35 l-35 0 0 70 0 70 -35 0 -35 0 0 -70 0 -70 35 0 c33 0 35
-2 35 -35 0 -33 -2 -35 -35 -35 l-35 0 0 -70 0 -70 35 0 c33 0 35 -2 35 -35 0
-33 2 -35 35 -35 33 0 35 -2 35 -35 0 -33 -2 -35 -35 -35 -33 0 -35 -2 -35
-35 0 -33 -2 -35 -35 -35 -33 0 -35 -2 -35 -35 0 -33 2 -35 35 -35 33 0 35 2
35 35 l0 35 70 0 70 0 0 -35 c0 -33 -2 -35 -35 -35 -33 0 -35 -2 -35 -35 0
-33 -2 -35 -35 -35 -33 0 -35 -2 -35 -35 0 -33 -2 -35 -35 -35 -33 0 -35 -2
-35 -35 0 -33 2 -35 35 -35 33 0 35 2 35 35 0 33 2 35 35 35 33 0 35 2 35 35
l0 35 70 0 70 0 0 -35 c0 -33 -2 -35 -35 -35 -33 0 -35 -2 -35 -35 0 -33 -2
-35 -35 -35 -33 0 -35 -2 -35 -35 0 -33 -2 -35 -35 -35 l-35 0 0 -70 0 -70
-35 0 c-33 0 -35 -2 -35 -35 l0 -35 105 0 105 0 0 35 c0 33 2 35 35 35 33 0
35 2 35 35 l0 35 -70 0 -70 0 0 35 0 35 105 0 105 0 0 -35 0 -35 70 0 70 0 0
-35 c0 -33 -2 -35 -35 -35 -33 0 -35 -2 -35 -35 l0 -35 70 0 70 0 0 -105 0
-105 35 0 c33 0 35 -2 35 -35 0 -33 -2 -35 -35 -35 l-35 0 0 -70 0 -70 70 0
70 0 0 -70 0 -70 105 0 105 0 0 35 0 35 -70 0 -70 0 0 35 c0 33 2 35 35 35 33
0 35 2 35 35 0 33 2 35 35 35 33 0 35 -2 35 -35 0 -33 2 -35 35 -35 33 0 35
-2 35 -35 0 -33 2 -35 35 -35 33 0 35 2 35 35 0 33 -2 35 -35 35 l-35 0 0 70
0 70 -35 0 c-33 0 -35 2 -35 35 0 33 -2 35 -35 35 l-35 0 0 -70 0 -70 -35 0
c-33 0 -35 -2 -35 -35 0 -33 -2 -35 -35 -35 -33 0 -35 2 -35 35 0 33 -2 35
-35 35 -33 0 -35 2 -35 35 0 33 2 35 35 35 33 0 35 2 35 35 0 33 2 35 35 35
33 0 35 2 35 35 l0 35 70 0 70 0 0 35 c0 33 -2 35 -35 35 -33 0 -35 2 -35 35
0 33 2 35 35 35 33 0 35 2 35 35 0 33 -2 35 -35 35 -33 0 -35 2 -35 35 l0 35
70 0 70 0 0 -70 0 -70 35 0 35 0 0 -105 0 -105 35 0 35 0 0 -70 0 -70 35 0
c33 0 35 2 35 35 l0 35 70 0 70 0 0 -35 0 -35 70 0 70 0 0 35 0 35 210 0 210
0 0 -35 0 -35 -175 0 -175 0 0 -35 0 -35 -70 0 -70 0 0 -35 0 -35 -70 0 -70 0
0 35 0 35 -70 0 -70 0 0 -70 0 -70 140 0 140 0 0 35 c0 33 2 35 35 35 33 0 35
-2 35 -35 l0 -35 175 0 175 0 0 70 0 70 70 0 70 0 0 35 c0 33 2 35 35 35 l35
0 0 140 0 140 -70 0 -70 0 0 70 0 70 -70 0 -70 0 0 70 0 70 -35 0 c-33 0 -35
2 -35 35 l0 35 70 0 70 0 0 -35 0 -35 70 0 70 0 0 35 c0 33 -2 35 -35 35 -33
0 -35 2 -35 35 l0 35 105 0 105 0 0 70 0 70 -35 0 c-33 0 -35 2 -35 35 l0 35
70 0 70 0 0 -35 0 -35 70 0 70 0 0 -35 c0 -33 2 -35 35 -35 33 0 35 -2 35 -35
0 -33 -2 -35 -35 -35 -33 0 -35 -2 -35 -35 0 -33 2 -35 35 -35 33 0 35 2 35
35 0 33 2 35 35 35 l35 0 0 -70 0 -70 -35 0 c-33 0 -35 -2 -35 -35 0 -33 2
-35 35 -35 33 0 35 2 35 35 0 33 2 35 35 35 33 0 35 -2 35 -35 0 -33 2 -35 35
-35 33 0 35 -2 35 -35 0 -33 2 -35 35 -35 33 0 35 -2 35 -35 0 -33 2 -35 35
-35 33 0 35 -2 35 -35 0 -33 -2 -35 -35 -35 -33 0 -35 -2 -35 -35 0 -33 2 -35
35 -35 l35 0 0 -70 0 -70 -35 0 c-33 0 -35 2 -35 35 0 33 -2 35 -35 35 l-35 0
0 -70 0 -70 -35 0 -35 0 0 70 0 70 -35 0 c-33 0 -35 2 -35 35 l0 35 70 0 70 0
0 70 0 70 -35 0 c-33 0 -35 2 -35 35 l0 35 -175 0 -175 0 0 35 c0 33 2 35 35
35 l35 0 0 105 0 105 -35 0 c-33 0 -35 -2 -35 -35 l0 -35 -70 0 -70 0 0 -35
c0 -33 2 -35 35 -35 l35 0 0 -70 0 -70 -70 0 -70 0 0 -35 0 -35 70 0 70 0 0
35 c0 33 2 35 35 35 l35 0 0 -70 0 -70 -35 0 -35 0 0 -70 0 -70 35 0 c33 0 35
2 35 35 0 33 2 35 35 35 33 0 35 -2 35 -35 0 -33 2 -35 35 -35 33 0 35 2 35
35 0 33 2 35 35 35 l35 0 0 -70 0 -70 -35 0 c-33 0 -35 -2 -35 -35 l0 -35 -70
0 -70 0 0 -35 c0 -33 -2 -35 -35 -35 -33 0 -35 -2 -35 -35 l0 -35 -70 0 -70 0
0 -35 0 -35 70 0 70 0 0 35 0 35 70 0 70 0 0 35 0 35 70 0 70 0 0 70 0 70 35
0 35 0 0 -70 0 -70 35 0 c33 0 35 -2 35 -35 l0 -35 105 0 105 0 0 105 0 105
210 0 210 0 0 -35 0 -35 70 0 70 0 0 -70 0 -70 35 0 c33 0 35 -2 35 -35 0 -33
2 -35 35 -35 33 0 35 2 35 35 0 33 -2 35 -35 35 l-35 0 0 70 0 70 35 0 c33 0
35 2 35 35 0 33 -2 35 -35 35 -33 0 -35 2 -35 35 0 33 2 35 35 35 33 0 35 2
35 35 l0 35 -70 0 -70 0 0 -35 c0 -33 -2 -35 -35 -35 -33 0 -35 -2 -35 -35 0
-33 -2 -35 -35 -35 l-35 0 0 105 0 105 35 0 c33 0 35 2 35 35 0 33 2 35 35 35
33 0 35 2 35 35 0 33 -2 35 -35 35 -33 0 -35 2 -35 35 l0 35 70 0 70 0 0 -105
0 -105 35 0 35 0 0 140 0 140 -35 0 -35 0 0 105 0 105 -70 0 -70 0 0 35 0 35
-105 0 -105 0 0 35 c0 33 -2 35 -35 35 -33 0 -35 -2 -35 -35 0 -33 2 -35 35
-35 l35 0 0 -70 0 -70 -70 0 -70 0 0 -35 c0 -33 -2 -35 -35 -35 -33 0 -35 2
-35 35 0 33 -2 35 -35 35 -33 0 -35 2 -35 35 0 33 2 35 35 35 l35 0 0 70 0 70
-35 0 c-33 0 -35 -2 -35 -35 0 -33 -2 -35 -35 -35 -33 0 -35 2 -35 35 0 33 -2
35 -35 35 -33 0 -35 2 -35 35 l0 35 -70 0 -70 0 0 35 c0 33 -2 35 -35 35 -33
0 -35 2 -35 35 l0 35 70 0 70 0 0 -35 0 -35 70 0 70 0 0 35 0 35 70 0 70 0 0
-70 0 -70 105 0 105 0 0 35 0 35 105 0 105 0 0 35 c0 33 2 35 35 35 33 0 35 2
35 35 l0 35 -70 0 -70 0 0 140 0 140 70 0 70 0 0 -70 0 -70 35 0 35 0 0 -70 0
-70 35 0 35 0 0 70 0 70 -35 0 -35 0 0 70 0 70 35 0 c33 0 35 2 35 35 l0 35
-140 0 -140 0 0 35 c0 33 2 35 35 35 33 0 35 2 35 35 l0 35 -245 0 -245 0 0
35 c0 33 2 35 35 35 33 0 35 2 35 35 0 33 2 35 35 35 33 0 35 -2 35 -35 l0
-35 105 0 105 0 0 35 c0 33 2 35 35 35 33 0 35 2 35 35 0 33 -2 35 -35 35 -33
0 -35 2 -35 35 0 33 2 35 35 35 33 0 35 2 35 35 0 33 -2 35 -35 35 -33 0 -35
2 -35 35 0 33 -2 35 -35 35 l-35 0 0 -105 0 -105 -105 0 -105 0 0 35 0 35 70
0 70 0 0 245 0 245 -35 0 -35 0 0 105 0 105 -35 0 c-33 0 -35 2 -35 35 0 33 2
35 35 35 33 0 35 2 35 35 0 33 -2 35 -35 35 -33 0 -35 -2 -35 -35 0 -33 -2
-35 -35 -35 l-35 0 0 70 0 70 -35 0 c-33 0 -35 2 -35 35 0 33 -2 35 -35 35
-33 0 -35 2 -35 35 0 33 2 35 35 35 33 0 35 2 35 35 0 33 2 35 35 35 l35 0 0
-70 0 -70 35 0 c33 0 35 2 35 35 0 33 2 35 35 35 l35 0 0 105 0 105 -35 0
c-33 0 -35 -2 -35 -35 l0 -35 -70 0 -70 0 0 35 0 35 -70 0 -70 0 0 -70 0 -70
-35 0 c-33 0 -35 2 -35 35 l0 35 -70 0 -70 0 0 35 0 35 -70 0 -70 0 0 -35 c0
-33 2 -35 35 -35 33 0 35 -2 35 -35 l0 -35 105 0 105 0 0 -35 c0 -33 -2 -35
-35 -35 -33 0 -35 -2 -35 -35 0 -33 -2 -35 -35 -35 -33 0 -35 -2 -35 -35 0
-33 -2 -35 -35 -35 -33 0 -35 2 -35 35 0 33 -2 35 -35 35 -33 0 -35 2 -35 35
0 33 -2 35 -35 35 l-35 0 0 105 0 105 -35 0 -35 0 0 -70 0 -70 -35 0 c-33 0
-35 -2 -35 -35 l0 -35 -70 0 -70 0 0 -35 c0 -33 -2 -35 -35 -35 -33 0 -35 2
-35 35 0 33 -2 35 -35 35 -33 0 -35 2 -35 35 0 33 2 35 35 35 l35 0 0 70 0 70
-35 0 -35 0 0 -70 0 -70 -175 0 -175 0 0 -70 0 -70 35 0 c33 0 35 -2 35 -35 0
-33 2 -35 35 -35 33 0 35 2 35 35 0 33 2 35 35 35 l35 0 0 -105 0 -105 -35 0
c-33 0 -35 2 -35 35 0 33 -2 35 -35 35 l-35 0 0 -70 0 -70 70 0 70 0 0 -35 0
-35 -70 0 -70 0 0 -70 0 -70 -35 0 c-33 0 -35 2 -35 35 0 33 -2 35 -35 35 -33
0 -35 -2 -35 -35 0 -33 2 -35 35 -35 33 0 35 -2 35 -35 0 -33 -2 -35 -35 -35
-33 0 -35 -2 -35 -35 0 -33 2 -35 35 -35 33 0 35 -2 35 -35 l0 -35 -70 0 -70
0 0 70 0 70 -105 0 -105 0 0 105 0 105 35 0 35 0 0 -70 0 -70 70 0 70 0 0 105
0 105 35 0 c33 0 35 2 35 35 0 33 2 35 35 35 l35 0 0 70 0 70 -35 0 -35 0 0
-70 0 -70 -35 0 c-33 0 -35 2 -35 35 0 33 -2 35 -35 35 -33 0 -35 -2 -35 -35
0 -33 -2 -35 -35 -35 l-35 0 0 70 0 70 70 0 70 0 0 35 c0 33 2 35 35 35 l35 0
0 105 0 105 70 0 70 0 0 35 0 35 -70 0 -70 0 0 -35 c0 -33 -2 -35 -35 -35 -33
0 -35 -2 -35 -35 l0 -35 -70 0 -70 0 0 35 c0 33 2 35 35 35 33 0 35 2 35 35 0
33 -2 35 -35 35 -33 0 -35 -2 -35 -35 l0 -35 -70 0 -70 0 0 35 0 35 -105 0
-105 0 0 -35 0 -35 105 0 105 0 0 -35 c0 -33 2 -35 35 -35 33 0 35 -2 35 -35
0 -33 -2 -35 -35 -35 -33 0 -35 -2 -35 -35 0 -33 2 -35 35 -35 33 0 35 -2 35
-35 l0 -35 -70 0 -70 0 0 105 0 105 -105 0 -105 0 0 70 0 70 -35 0 -35 0 0
-70z m2030 -105 c0 -33 -2 -35 -35 -35 -33 0 -35 -2 -35 -35 0 -33 2 -35 35
-35 33 0 35 -2 35 -35 0 -33 -2 -35 -35 -35 l-35 0 0 -70 0 -70 35 0 c33 0 35
2 35 35 0 33 2 35 35 35 33 0 35 -2 35 -35 0 -33 -2 -35 -35 -35 -33 0 -35 -2
-35 -35 0 -33 -2 -35 -35 -35 -33 0 -35 2 -35 35 0 33 -2 35 -35 35 l-35 0 0
-70 0 -70 140 0 140 0 0 -35 c0 -33 2 -35 35 -35 33 0 35 -2 35 -35 0 -33 -2
-35 -35 -35 -33 0 -35 2 -35 35 0 33 -2 35 -35 35 -33 0 -35 -2 -35 -35 l0
-35 -105 0 -105 0 0 -70 0 -70 35 0 c33 0 35 -2 35 -35 l0 -35 -105 0 -105 0
0 70 0 70 -35 0 -35 0 0 -105 0 -105 -35 0 c-33 0 -35 -2 -35 -35 l0 -35 70 0
70 0 0 35 0 35 70 0 70 0 0 -35 0 -35 70 0 70 0 0 70 0 70 70 0 70 0 0 35 c0
33 -2 35 -35 35 -33 0 -35 2 -35 35 l0 35 105 0 105 0 0 -35 c0 -33 -2 -35
-35 -35 l-35 0 0 -105 0 -105 35 0 c33 0 35 -2 35 -35 l0 -35 -70 0 -70 0 0
-35 c0 -33 -2 -35 -35 -35 -33 0 -35 -2 -35 -35 0 -33 2 -35 35 -35 l35 0 0
-70 0 -70 -35 0 c-33 0 -35 -2 -35 -35 0 -33 2 -35 35 -35 33 0 35 -2 35 -35
0 -33 2 -35 35 -35 l35 0 0 -140 0 -140 -70 0 -70 0 0 -35 0 -35 70 0 70 0 0
-35 0 -35 -70 0 -70 0 0 35 c0 33 -2 35 -35 35 l-35 0 0 -70 0 -70 -35 0 -35
0 0 105 0 105 70 0 70 0 0 35 0 35 -70 0 -70 0 0 35 c0 33 -2 35 -35 35 l-35
0 0 -70 0 -70 -70 0 -70 0 0 -70 0 -70 -70 0 -70 0 0 -35 c0 -33 -2 -35 -35
-35 -33 0 -35 2 -35 35 l0 35 -70 0 -70 0 0 -105 0 -105 35 0 c33 0 35 -2 35
-35 0 -33 -2 -35 -35 -35 -33 0 -35 2 -35 35 0 33 -2 35 -35 35 -33 0 -35 -2
-35 -35 0 -33 -2 -35 -35 -35 -33 0 -35 -2 -35 -35 l0 -35 105 0 105 0 0 -35
0 -35 -70 0 -70 0 0 -35 0 -35 -70 0 -70 0 0 35 c0 33 -2 35 -35 35 -33 0 -35
2 -35 35 0 33 -2 35 -35 35 l-35 0 0 -70 0 -70 35 0 c33 0 35 -2 35 -35 0 -33
-2 -35 -35 -35 -33 0 -35 -2 -35 -35 0 -33 2 -35 35 -35 l35 0 0 -70 0 -70
-70 0 -70 0 0 -35 0 -35 -105 0 -105 0 0 70 0 70 -35 0 -35 0 0 -70 0 -70 -35
0 c-33 0 -35 -2 -35 -35 0 -33 -2 -35 -35 -35 -33 0 -35 2 -35 35 0 33 2 35
35 35 33 0 35 2 35 35 0 33 -2 35 -35 35 l-35 0 0 105 0 105 -70 0 -70 0 0
-35 c0 -33 -2 -35 -35 -35 l-35 0 0 70 0 70 -70 0 -70 0 0 -35 c0 -33 2 -35
35 -35 l35 0 0 -70 0 -70 -70 0 -70 0 0 -70 0 -70 -70 0 -70 0 0 35 c0 33 2
35 35 35 l35 0 0 70 0 70 70 0 70 0 0 35 c0 33 -2 35 -35 35 l-35 0 0 70 0 70
-70 0 -70 0 0 -140 0 -140 -35 0 c-33 0 -35 2 -35 35 0 33 -2 35 -35 35 -33 0
-35 2 -35 35 0 33 2 35 35 35 33 0 35 2 35 35 0 33 -2 35 -35 35 -33 0 -35 2
-35 35 0 33 -2 35 -35 35 -33 0 -35 2 -35 35 0 33 -2 35 -35 35 -33 0 -35 2
-35 35 0 33 2 35 35 35 l35 0 0 105 0 105 35 0 c33 0 35 2 35 35 l0 35 70 0
70 0 0 35 c0 33 2 35 35 35 33 0 35 -2 35 -35 0 -33 2 -35 35 -35 33 0 35 -2
35 -35 0 -33 2 -35 35 -35 l35 0 0 -105 0 -105 -35 0 -35 0 0 105 0 105 -35 0
-35 0 0 -140 0 -140 35 0 c33 0 35 -2 35 -35 l0 -35 70 0 70 0 0 70 0 70 140
0 140 0 0 35 0 35 70 0 70 0 0 35 0 35 -70 0 -70 0 0 35 c0 33 -2 35 -35 35
-33 0 -35 -2 -35 -35 0 -33 -2 -35 -35 -35 -33 0 -35 -2 -35 -35 0 -33 -2 -35
-35 -35 -33 0 -35 2 -35 35 0 33 2 35 35 35 l35 0 0 105 0 105 -35 0 -35 0 0
-70 0 -70 -35 0 c-33 0 -35 2 -35 35 0 33 -2 35 -35 35 -33 0 -35 2 -35 35 0
33 -2 35 -35 35 l-35 0 0 70 0 70 35 0 c33 0 35 2 35 35 l0 35 -70 0 -70 0 0
105 0 105 70 0 70 0 0 -35 c0 -33 2 -35 35 -35 33 0 35 2 35 35 l0 35 70 0 70
0 0 35 0 35 70 0 70 0 0 35 c0 33 2 35 35 35 33 0 35 2 35 35 0 33 -2 35 -35
35 -33 0 -35 2 -35 35 0 33 2 35 35 35 33 0 35 2 35 35 l0 35 -105 0 -105 0 0
35 0 35 -70 0 -70 0 0 -35 0 -35 -105 0 -105 0 0 35 0 35 -105 0 -105 0 0 -35
c0 -33 2 -35 35 -35 33 0 35 -2 35 -35 l0 -35 105 0 105 0 0 -70 0 -70 70 0
70 0 0 -35 0 -35 -70 0 -70 0 0 35 c0 33 -2 35 -35 35 -33 0 -35 -2 -35 -35 0
-33 -2 -35 -35 -35 -33 0 -35 2 -35 35 0 33 2 35 35 35 33 0 35 2 35 35 l0 35
-70 0 -70 0 0 -35 c0 -33 -2 -35 -35 -35 -33 0 -35 -2 -35 -35 0 -33 2 -35 35
-35 33 0 35 -2 35 -35 l0 -35 -105 0 -105 0 0 -70 0 -70 -35 0 c-33 0 -35 2
-35 35 0 33 -2 35 -35 35 -33 0 -35 2 -35 35 0 33 -2 35 -35 35 -33 0 -35 2
-35 35 l0 35 70 0 70 0 0 -35 c0 -33 2 -35 35 -35 33 0 35 2 35 35 0 33 2 35
35 35 l35 0 0 70 0 70 70 0 70 0 0 35 c0 33 -2 35 -35 35 -33 0 -35 2 -35 35
0 33 -2 35 -35 35 -33 0 -35 2 -35 35 0 33 2 35 35 35 33 0 35 2 35 35 l0 35
105 0 105 0 0 35 c0 33 2 35 35 35 33 0 35 2 35 35 0 33 -2 35 -35 35 -33 0
-35 2 -35 35 0 33 -2 35 -35 35 -33 0 -35 -2 -35 -35 0 -33 -2 -35 -35 -35
-33 0 -35 -2 -35 -35 0 -33 -2 -35 -35 -35 -33 0 -35 2 -35 35 0 33 2 35 35
35 33 0 35 2 35 35 0 33 -2 35 -35 35 -33 0 -35 2 -35 35 0 33 2 35 35 35 33
0 35 -2 35 -35 0 -33 2 -35 35 -35 l35 0 0 70 0 70 35 0 c33 0 35 -2 35 -35 0
-33 2 -35 35 -35 33 0 35 2 35 35 0 33 2 35 35 35 l35 0 0 70 0 70 70 0 70 0
0 70 0 70 35 0 c33 0 35 -2 35 -35 0 -33 2 -35 35 -35 33 0 35 -2 35 -35 0
-33 2 -35 35 -35 33 0 35 2 35 35 0 33 2 35 35 35 33 0 35 -2 35 -35 0 -33 -2
-35 -35 -35 -33 0 -35 -2 -35 -35 0 -33 -2 -35 -35 -35 -33 0 -35 2 -35 35 l0
35 -70 0 -70 0 0 -70 0 -70 -70 0 -70 0 0 -70 0 -70 35 0 c33 0 35 2 35 35 0
33 2 35 35 35 33 0 35 -2 35 -35 0 -33 -2 -35 -35 -35 -33 0 -35 -2 -35 -35 0
-33 -2 -35 -35 -35 -33 0 -35 -2 -35 -35 0 -33 -2 -35 -35 -35 -33 0 -35 -2
-35 -35 l0 -35 175 0 175 0 0 -35 0 -35 70 0 70 0 0 -35 0 -35 140 0 140 0 0
105 0 105 -35 0 c-33 0 -35 2 -35 35 0 33 -2 35 -35 35 -33 0 -35 2 -35 35 l0
35 175 0 175 0 0 70 0 70 35 0 c33 0 35 2 35 35 0 33 2 35 35 35 33 0 35 -2
35 -35 0 -33 2 -35 35 -35 33 0 35 2 35 35 0 33 2 35 35 35 l35 0 0 -105 0
-105 35 0 c33 0 35 2 35 35 0 33 2 35 35 35 33 0 35 2 35 35 0 33 -2 35 -35
35 -33 0 -35 2 -35 35 0 33 2 35 35 35 l35 0 0 70 0 70 -35 0 c-33 0 -35 -2
-35 -35 0 -33 -2 -35 -35 -35 -33 0 -35 2 -35 35 0 33 -2 35 -35 35 -33 0 -35
2 -35 35 0 33 2 35 35 35 l35 0 0 70 0 70 35 0 c33 0 35 2 35 35 0 33 2 35 35
35 33 0 35 -2 35 -35 0 -33 2 -35 35 -35 33 0 35 -2 35 -35 0 -33 -2 -35 -35
-35 l-35 0 0 -70 0 -70 35 0 c33 0 35 2 35 35 0 33 2 35 35 35 l35 0 0 -70 0
-70 70 0 70 0 0 35 c0 33 -2 35 -35 35 l-35 0 0 70 0 70 35 0 c33 0 35 2 35
35 0 33 2 35 35 35 33 0 35 2 35 35 0 33 2 35 35 35 33 0 35 2 35 35 0 33 2
35 35 35 33 0 35 -2 35 -35z m-1540 -70 c0 -33 -2 -35 -35 -35 -33 0 -35 2
-35 35 0 33 2 35 35 35 33 0 35 -2 35 -35z m140 0 c0 -33 -2 -35 -35 -35 -33
0 -35 2 -35 35 0 33 2 35 35 35 33 0 35 -2 35 -35z m280 0 c0 -33 -2 -35 -35
-35 -33 0 -35 2 -35 35 0 33 2 35 35 35 33 0 35 -2 35 -35z m210 0 c0 -33 -2
-35 -35 -35 -33 0 -35 2 -35 35 0 33 2 35 35 35 33 0 35 -2 35 -35z m140 -210
l0 -105 -105 0 -105 0 0 105 0 105 105 0 105 0 0 -105z m-980 0 c0 -33 -2 -35
-35 -35 -33 0 -35 2 -35 35 0 33 2 35 35 35 33 0 35 -2 35 -35z m770 -280 c0
-33 -2 -35 -35 -35 -33 0 -35 2 -35 35 0 33 2 35 35 35 33 0 35 -2 35 -35z
m-1400 -70 c0 -33 -2 -35 -35 -35 -33 0 -35 -2 -35 -35 0 -33 -2 -35 -35 -35
-33 0 -35 2 -35 35 0 33 2 35 35 35 33 0 35 2 35 35 0 33 2 35 35 35 33 0 35
-2 35 -35z m980 -210 c0 -33 -2 -35 -35 -35 -33 0 -35 2 -35 35 0 33 2 35 35
35 33 0 35 -2 35 -35z m140 -70 c0 -33 -2 -35 -35 -35 -33 0 -35 2 -35 35 0
33 2 35 35 35 33 0 35 -2 35 -35z m-420 -210 c0 -33 2 -35 35 -35 33 0 35 2
35 35 0 33 2 35 35 35 l35 0 0 -70 0 -70 -70 0 -70 0 0 35 0 35 -70 0 -70 0 0
35 0 35 70 0 70 0 0 -35z m2170 -70 c0 -33 -2 -35 -35 -35 -33 0 -35 2 -35 35
0 33 2 35 35 35 33 0 35 -2 35 -35z m-2520 -350 l0 -105 -105 0 -105 0 0 105
0 105 105 0 105 0 0 -105z m2520 0 l0 -105 -105 0 -105 0 0 105 0 105 105 0
105 0 0 -105z m-2590 -210 c0 -33 -2 -35 -35 -35 -33 0 -35 2 -35 35 0 33 2
35 35 35 33 0 35 -2 35 -35z m2590 0 c0 -33 -2 -35 -35 -35 -33 0 -35 -2 -35
-35 0 -33 -2 -35 -35 -35 -33 0 -35 -2 -35 -35 0 -33 -2 -35 -35 -35 -33 0
-35 2 -35 35 0 33 2 35 35 35 33 0 35 2 35 35 0 33 2 35 35 35 33 0 35 2 35
35 0 33 2 35 35 35 33 0 35 -2 35 -35z m-630 -70 c0 -33 -2 -35 -35 -35 -33 0
-35 2 -35 35 0 33 2 35 35 35 33 0 35 -2 35 -35z m-140 -140 c0 -33 2 -35 35
-35 33 0 35 -2 35 -35 0 -33 2 -35 35 -35 33 0 35 -2 35 -35 0 -33 2 -35 35
-35 33 0 35 -2 35 -35 0 -33 -2 -35 -35 -35 -33 0 -35 -2 -35 -35 0 -33 -2
-35 -35 -35 -33 0 -35 2 -35 35 0 33 -2 35 -35 35 l-35 0 0 105 0 105 -35 0
c-33 0 -35 2 -35 35 0 33 2 35 35 35 33 0 35 -2 35 -35z m-140 -70 c0 -33 -2
-35 -35 -35 -33 0 -35 2 -35 35 0 33 2 35 35 35 33 0 35 -2 35 -35z m490 -245
l0 -70 -70 0 -70 0 0 35 c0 33 2 35 35 35 33 0 35 2 35 35 0 33 2 35 35 35
l35 0 0 -70z m560 -35 c0 -33 2 -35 35 -35 33 0 35 -2 35 -35 0 -33 -2 -35
-35 -35 -33 0 -35 2 -35 35 0 33 -2 35 -35 35 -33 0 -35 -2 -35 -35 l0 -35
-70 0 -70 0 0 -35 c0 -33 -2 -35 -35 -35 -33 0 -35 -2 -35 -35 0 -33 2 -35 35
-35 33 0 35 -2 35 -35 l0 -35 -105 0 -105 0 0 -35 c0 -33 -2 -35 -35 -35 -33
0 -35 2 -35 35 0 33 2 35 35 35 33 0 35 2 35 35 l0 35 -105 0 -105 0 0 35 c0
33 2 35 35 35 33 0 35 2 35 35 0 33 2 35 35 35 33 0 35 -2 35 -35 0 -33 2 -35
35 -35 33 0 35 -2 35 -35 0 -33 2 -35 35 -35 l35 0 0 70 0 70 70 0 70 0 0 35
0 35 70 0 70 0 0 35 c0 33 2 35 35 35 33 0 35 -2 35 -35z m-2870 -70 c0 -33
-2 -35 -35 -35 -33 0 -35 2 -35 35 0 33 2 35 35 35 33 0 35 -2 35 -35z m2870
-140 c0 -33 -2 -35 -35 -35 -33 0 -35 -2 -35 -35 0 -33 2 -35 35 -35 33 0 35
-2 35 -35 0 -33 -2 -35 -35 -35 -33 0 -35 2 -35 35 0 33 -2 35 -35 35 -33 0
-35 2 -35 35 0 33 2 35 35 35 33 0 35 2 35 35 0 33 2 35 35 35 33 0 35 -2 35
-35z m-2380 -140 c0 -33 -2 -35 -35 -35 -33 0 -35 2 -35 35 0 33 2 35 35 35
33 0 35 -2 35 -35z m980 -140 l0 -105 -105 0 -105 0 0 105 0 105 105 0 105 0
0 -105z m560 70 c0 -33 2 -35 35 -35 33 0 35 2 35 35 0 33 2 35 35 35 33 0 35
-2 35 -35 0 -33 -2 -35 -35 -35 -33 0 -35 -2 -35 -35 0 -33 -2 -35 -35 -35
-33 0 -35 2 -35 35 l0 35 -70 0 -70 0 0 35 0 35 70 0 70 0 0 -35z m700 -70 l0
-105 -105 0 -105 0 0 105 0 105 105 0 105 0 0 -105z m-2380 0 c0 -33 -2 -35
-35 -35 -33 0 -35 2 -35 35 0 33 2 35 35 35 33 0 35 -2 35 -35z m770 0 c0 -33
2 -35 35 -35 33 0 35 -2 35 -35 0 -33 -2 -35 -35 -35 -33 0 -35 -2 -35 -35 0
-33 -2 -35 -35 -35 -33 0 -35 2 -35 35 0 33 2 35 35 35 33 0 35 2 35 35 0 33
-2 35 -35 35 -33 0 -35 2 -35 35 0 33 2 35 35 35 33 0 35 -2 35 -35z m490
-105 l0 -70 -35 0 -35 0 0 70 0 70 35 0 35 0 0 -70z m1400 -105 c0 -33 -2 -35
-35 -35 -33 0 -35 2 -35 35 0 33 2 35 35 35 33 0 35 -2 35 -35z m-1750 -140
c0 -33 -2 -35 -35 -35 -33 0 -35 2 -35 35 0 33 2 35 35 35 33 0 35 -2 35 -35z
m140 0 c0 -33 -2 -35 -35 -35 -33 0 -35 2 -35 35 0 33 2 35 35 35 33 0 35 -2
35 -35z"/>
<path d="M2740 3395 c0 -33 2 -35 35 -35 33 0 35 2 35 35 0 33 -2 35 -35 35
-33 0 -35 -2 -35 -35z"/>
<path d="M2250 3255 c0 -33 2 -35 35 -35 33 0 35 2 35 35 0 33 -2 35 -35 35
-33 0 -35 -2 -35 -35z"/>
<path d="M2670 3255 c0 -33 2 -35 35 -35 33 0 35 2 35 35 0 33 -2 35 -35 35
-33 0 -35 -2 -35 -35z"/>
<path d="M2390 3045 c0 -33 2 -35 35 -35 33 0 35 2 35 35 0 33 -2 35 -35 35
-33 0 -35 -2 -35 -35z"/>
<path d="M2530 3045 c0 -33 2 -35 35 -35 33 0 35 2 35 35 0 33 -2 35 -35 35
-33 0 -35 -2 -35 -35z"/>
<path d="M2670 3010 l0 -70 35 0 35 0 0 70 0 70 -35 0 -35 0 0 -70z"/>
<path d="M2040 2905 c0 -33 -2 -35 -35 -35 -33 0 -35 -2 -35 -35 l0 -35 -105
0 -105 0 0 -35 0 -35 70 0 70 0 0 -35 c0 -33 -2 -35 -35 -35 -33 0 -35 -2 -35
-35 l0 -35 70 0 70 0 0 105 0 105 35 0 35 0 0 -105 0 -105 35 0 c33 0 35 -2
35 -35 l0 -35 -105 0 -105 0 0 -70 0 -70 -35 0 -35 0 0 70 0 70 -35 0 c-33 0
-35 -2 -35 -35 l0 -35 -70 0 -70 0 0 -35 0 -35 105 0 105 0 0 -35 c0 -33 2
-35 35 -35 33 0 35 -2 35 -35 0 -33 2 -35 35 -35 33 0 35 2 35 35 0 33 2 35
35 35 l35 0 0 -70 0 -70 -105 0 -105 0 0 35 c0 33 -2 35 -35 35 -33 0 -35 2
-35 35 l0 35 -70 0 -70 0 0 -35 c0 -33 -2 -35 -35 -35 -33 0 -35 2 -35 35 0
33 -2 35 -35 35 -33 0 -35 -2 -35 -35 0 -33 -2 -35 -35 -35 -33 0 -35 -2 -35
-35 0 -33 -2 -35 -35 -35 l-35 0 0 -70 0 -70 35 0 35 0 0 -140 0 -140 -35 0
c-33 0 -35 2 -35 35 0 33 -2 35 -35 35 -33 0 -35 2 -35 35 0 33 -2 35 -35 35
-33 0 -35 -2 -35 -35 0 -33 -2 -35 -35 -35 -33 0 -35 -2 -35 -35 0 -33 2 -35
35 -35 33 0 35 2 35 35 0 33 2 35 35 35 33 0 35 -2 35 -35 0 -33 2 -35 35 -35
33 0 35 -2 35 -35 l0 -35 70 0 70 0 0 -35 0 -35 70 0 70 0 0 -35 c0 -33 2 -35
35 -35 33 0 35 -2 35 -35 0 -33 2 -35 35 -35 33 0 35 2 35 35 0 33 2 35 35 35
l35 0 0 -70 0 -70 -35 0 c-33 0 -35 -2 -35 -35 0 -33 -2 -35 -35 -35 -33 0
-35 2 -35 35 0 33 -2 35 -35 35 -33 0 -35 2 -35 35 0 33 -2 35 -35 35 -33 0
-35 -2 -35 -35 0 -33 -2 -35 -35 -35 l-35 0 0 -70 0 -70 -35 0 c-33 0 -35 2
-35 35 0 33 -2 35 -35 35 -33 0 -35 -2 -35 -35 0 -33 -2 -35 -35 -35 -33 0
-35 -2 -35 -35 l0 -35 70 0 70 0 0 -35 0 -35 105 0 105 0 0 35 0 35 70 0 70 0
0 -35 c0 -33 -2 -35 -35 -35 -33 0 -35 -2 -35 -35 0 -33 -2 -35 -35 -35 -33 0
-35 -2 -35 -35 0 -33 2 -35 35 -35 33 0 35 -2 35 -35 0 -33 2 -35 35 -35 33 0
35 2 35 35 l0 35 70 0 70 0 0 35 c0 33 -2 35 -35 35 -33 0 -35 2 -35 35 0 33
2 35 35 35 33 0 35 2 35 35 0 33 -2 35 -35 35 -33 0 -35 2 -35 35 0 33 -2 35
-35 35 -33 0 -35 2 -35 35 l0 35 70 0 70 0 0 35 c0 33 2 35 35 35 33 0 35 -2
35 -35 0 -33 2 -35 35 -35 33 0 35 -2 35 -35 0 -33 2 -35 35 -35 33 0 35 2 35
35 0 33 -2 35 -35 35 -33 0 -35 2 -35 35 0 33 2 35 35 35 33 0 35 2 35 35 0
33 2 35 35 35 l35 0 0 105 0 105 35 0 35 0 0 70 0 70 35 0 c33 0 35 2 35 35
l0 35 70 0 70 0 0 -35 c0 -33 2 -35 35 -35 33 0 35 2 35 35 0 33 -2 35 -35 35
l-35 0 0 70 0 70 35 0 35 0 0 105 0 105 -35 0 -35 0 0 -70 0 -70 -35 0 c-33 0
-35 2 -35 35 l0 35 -70 0 -70 0 0 70 0 70 -70 0 -70 0 0 35 c0 33 -2 35 -35
35 -33 0 -35 2 -35 35 0 33 2 35 35 35 33 0 35 2 35 35 l0 35 70 0 70 0 0 -35
c0 -33 -2 -35 -35 -35 -33 0 -35 -2 -35 -35 l0 -35 70 0 70 0 0 35 c0 33 2 35
35 35 l35 0 0 -70 0 -70 105 0 105 0 0 -35 0 -35 105 0 105 0 0 -35 0 -35 -70
0 -70 0 0 -35 c0 -33 -2 -35 -35 -35 l-35 0 0 -70 0 -70 70 0 70 0 0 70 0 70
35 0 35 0 0 -70 0 -70 35 0 35 0 0 140 0 140 35 0 c33 0 35 2 35 35 0 33 -2
35 -35 35 -33 0 -35 -2 -35 -35 0 -33 -2 -35 -35 -35 l-35 0 0 70 0 70 35 0
c33 0 35 2 35 35 l0 35 -70 0 -70 0 0 70 0 70 -35 0 -35 0 0 -70 0 -70 -70 0
-70 0 0 -35 c0 -33 -2 -35 -35 -35 -33 0 -35 2 -35 35 0 33 -2 35 -35 35 l-35
0 0 70 0 70 -35 0 c-33 0 -35 -2 -35 -35 0 -33 -2 -35 -35 -35 l-35 0 0 105 0
105 -70 0 -70 0 0 35 c0 33 -2 35 -35 35 -33 0 -35 2 -35 35 0 33 2 35 35 35
33 0 35 2 35 35 0 33 -2 35 -35 35 -33 0 -35 -2 -35 -35z m630 -560 c0 -33 -2
-35 -35 -35 -33 0 -35 2 -35 35 0 33 2 35 35 35 33 0 35 -2 35 -35z m-1120
-175 l0 -70 35 0 c33 0 35 -2 35 -35 0 -33 2 -35 35 -35 l35 0 0 70 0 70 -35
0 c-33 0 -35 2 -35 35 l0 35 70 0 70 0 0 -35 c0 -33 2 -35 35 -35 l35 0 0 -70
0 -70 -35 0 c-33 0 -35 -2 -35 -35 0 -33 2 -35 35 -35 l35 0 0 -70 0 -70 35 0
c33 0 35 -2 35 -35 0 -33 -2 -35 -35 -35 -33 0 -35 -2 -35 -35 0 -33 -2 -35
-35 -35 l-35 0 0 -70 0 -70 -35 0 -35 0 0 70 0 70 35 0 c33 0 35 2 35 35 0 33
-2 35 -35 35 -33 0 -35 2 -35 35 0 33 2 35 35 35 33 0 35 2 35 35 l0 35 -105
0 -105 0 0 -35 c0 -33 2 -35 35 -35 l35 0 0 -70 0 -70 -35 0 -35 0 0 70 0 70
-35 0 c-33 0 -35 2 -35 35 0 33 2 35 35 35 33 0 35 2 35 35 0 33 -2 35 -35 35
-33 0 -35 2 -35 35 0 33 -2 35 -35 35 l-35 0 0 70 0 70 35 0 c33 0 35 2 35 35
0 33 2 35 35 35 l35 0 0 -70z m560 -175 l0 -105 -105 0 -105 0 0 105 0 105
105 0 105 0 0 -105z m210 70 c0 -33 2 -35 35 -35 33 0 35 -2 35 -35 0 -33 -2
-35 -35 -35 -33 0 -35 2 -35 35 0 33 -2 35 -35 35 -33 0 -35 -2 -35 -35 0 -33
-2 -35 -35 -35 -33 0 -35 2 -35 35 0 33 2 35 35 35 33 0 35 2 35 35 0 33 2 35
35 35 33 0 35 -2 35 -35z m-140 -280 l0 -35 -70 0 -70 0 0 -35 c0 -33 -2 -35
-35 -35 -33 0 -35 2 -35 35 0 33 2 35 35 35 33 0 35 2 35 35 l0 35 70 0 70 0
0 -35z m-140 -210 c0 -33 2 -35 35 -35 33 0 35 -2 35 -35 0 -33 -2 -35 -35
-35 -33 0 -35 -2 -35 -35 0 -33 -2 -35 -35 -35 -33 0 -35 2 -35 35 0 33 -2 35
-35 35 -33 0 -35 2 -35 35 0 33 -2 35 -35 35 -33 0 -35 2 -35 35 l0 35 105 0
105 0 0 -35z m-350 -280 l0 -35 -70 0 -70 0 0 35 0 35 70 0 70 0 0 -35z"/>
<path d="M1480 2065 c0 -33 2 -35 35 -35 33 0 35 2 35 35 0 33 -2 35 -35 35
-33 0 -35 -2 -35 -35z"/>
<path d="M1970 1995 c0 -33 2 -35 35 -35 33 0 35 2 35 35 0 33 -2 35 -35 35
-33 0 -35 -2 -35 -35z"/>
<path d="M1970 1505 c0 -33 2 -35 35 -35 33 0 35 2 35 35 0 33 -2 35 -35 35
-33 0 -35 -2 -35 -35z"/>
<path d="M2390 2905 l0 -35 70 0 70 0 0 35 0 35 -70 0 -70 0 0 -35z"/>
<path d="M2320 2730 l0 -70 35 0 35 0 0 70 0 70 -35 0 -35 0 0 -70z"/>
<path d="M920 2625 c0 -33 2 -35 35 -35 33 0 35 2 35 35 0 33 -2 35 -35 35
-33 0 -35 -2 -35 -35z"/>
<path d="M2950 2555 c0 -33 2 -35 35 -35 33 0 35 2 35 35 0 33 -2 35 -35 35
-33 0 -35 -2 -35 -35z"/>
<path d="M990 2065 c0 -33 2 -35 35 -35 33 0 35 -2 35 -35 l0 -35 70 0 70 0 0
35 c0 33 2 35 35 35 33 0 35 2 35 35 0 33 -2 35 -35 35 -33 0 -35 -2 -35 -35
l0 -35 -70 0 -70 0 0 35 c0 33 -2 35 -35 35 -33 0 -35 -2 -35 -35z"/>
<path d="M2950 1995 c0 -33 2 -35 35 -35 33 0 35 2 35 35 0 33 -2 35 -35 35
-33 0 -35 -2 -35 -35z"/>
<path d="M850 1645 l0 -35 -70 0 -70 0 0 -35 0 -35 70 0 70 0 0 35 c0 33 2 35
35 35 33 0 35 2 35 35 0 33 -2 35 -35 35 -33 0 -35 -2 -35 -35z"/>
<path d="M710 1435 c0 -33 2 -35 35 -35 33 0 35 2 35 35 0 33 -2 35 -35 35
-33 0 -35 -2 -35 -35z"/>
<path d="M710 1295 l0 -35 70 0 70 0 0 35 0 35 -70 0 -70 0 0 -35z"/>
<path d="M1480 1015 c0 -33 2 -35 35 -35 33 0 35 2 35 35 0 33 -2 35 -35 35
-33 0 -35 -2 -35 -35z"/>
<path d="M1970 3255 c0 -33 2 -35 35 -35 33 0 35 2 35 35 0 33 -2 35 -35 35
-33 0 -35 -2 -35 -35z"/>
<path d="M710 1995 c0 -33 2 -35 35 -35 33 0 35 2 35 35 0 33 -2 35 -35 35
-33 0 -35 -2 -35 -35z"/>
<path d="M3230 1995 c0 -33 2 -35 35 -35 33 0 35 2 35 35 0 33 -2 35 -35 35
-33 0 -35 -2 -35 -35z"/>
<path d="M2670 1365 c0 -33 2 -35 35 -35 33 0 35 2 35 35 0 33 -2 35 -35 35
-33 0 -35 -2 -35 -35z"/>
<path d="M1970 735 c0 -33 2 -35 35 -35 33 0 35 2 35 35 0 33 -2 35 -35 35
-33 0 -35 -2 -35 -35z"/>
<path d="M3230 735 c0 -33 2 -35 35 -35 33 0 35 2 35 35 0 33 -2 35 -35 35
-33 0 -35 -2 -35 -35z"/>
<path d="M2180 3675 c0 -33 -2 -35 -35 -35 -33 0 -35 -2 -35 -35 0 -33 2 -35
35 -35 33 0 35 2 35 35 0 33 2 35 35 35 33 0 35 2 35 35 0 33 -2 35 -35 35
-33 0 -35 -2 -35 -35z"/>
<path d="M3230 3465 l0 -245 245 0 245 0 0 245 0 245 -245 0 -245 0 0 -245z
m420 0 l0 -175 -175 0 -175 0 0 175 0 175 175 0 175 0 0 -175z"/>
<path d="M3370 3465 l0 -105 105 0 105 0 0 105 0 105 -105 0 -105 0 0 -105z"/>
<path d="M290 3115 c0 -33 2 -35 35 -35 33 0 35 2 35 35 0 33 -2 35 -35 35
-33 0 -35 -2 -35 -35z"/>
<path d="M3230 3080 l0 -70 70 0 70 0 0 -35 c0 -33 2 -35 35 -35 33 0 35 -2
35 -35 l0 -35 -70 0 -70 0 0 -105 0 -105 105 0 105 0 0 -35 c0 -33 2 -35 35
-35 33 0 35 -2 35 -35 0 -33 -2 -35 -35 -35 l-35 0 0 -70 0 -70 35 0 c33 0 35
-2 35 -35 0 -33 2 -35 35 -35 33 0 35 -2 35 -35 0 -33 -2 -35 -35 -35 l-35 0
0 -70 0 -70 35 0 35 0 0 70 0 70 35 0 c33 0 35 2 35 35 0 33 -2 35 -35 35
l-35 0 0 140 0 140 35 0 c33 0 35 2 35 35 0 33 -2 35 -35 35 -33 0 -35 -2 -35
-35 0 -33 -2 -35 -35 -35 -33 0 -35 2 -35 35 0 33 -2 35 -35 35 -33 0 -35 2
-35 35 l0 35 70 0 70 0 0 35 c0 33 2 35 35 35 l35 0 0 70 0 70 -35 0 c-33 0
-35 2 -35 35 l0 35 -70 0 -70 0 0 70 0 70 -35 0 c-33 0 -35 -2 -35 -35 l0 -35
-70 0 -70 0 0 35 c0 33 -2 35 -35 35 l-35 0 0 -70z m280 -105 l0 -35 70 0 70
0 0 -35 0 -35 -70 0 -70 0 0 35 c0 33 -2 35 -35 35 -33 0 -35 2 -35 35 0 33 2
35 35 35 33 0 35 -2 35 -35z m0 -210 l0 -35 -70 0 -70 0 0 35 0 35 70 0 70 0
0 -35z"/>
<path d="M3580 3115 l0 -35 70 0 70 0 0 35 0 35 -70 0 -70 0 0 -35z"/>
<path d="M360 2555 l0 -35 70 0 70 0 0 35 0 35 -70 0 -70 0 0 -35z"/>
<path d="M3650 1505 c0 -33 2 -35 35 -35 33 0 35 2 35 35 0 33 -2 35 -35 35
-33 0 -35 -2 -35 -35z"/>
<path d="M3510 1435 c0 -33 2 -35 35 -35 33 0 35 -2 35 -35 l0 -35 70 0 70 0
0 35 0 35 -70 0 -70 0 0 35 c0 33 -2 35 -35 35 -33 0 -35 -2 -35 -35z"/>
<path d="M290 525 l0 -245 245 0 245 0 0 245 0 245 -245 0 -245 0 0 -245z
m420 0 l0 -175 -175 0 -175 0 0 175 0 175 175 0 175 0 0 -175z"/>
<path d="M430 525 l0 -105 105 0 105 0 0 105 0 105 -105 0 -105 0 0 -105z"/>
<path d="M3300 455 c0 -33 -2 -35 -35 -35 -33 0 -35 -2 -35 -35 0 -33 -2 -35
-35 -35 -33 0 -35 2 -35 35 0 33 -2 35 -35 35 -33 0 -35 -2 -35 -35 0 -33 2
-35 35 -35 33 0 35 -2 35 -35 l0 -35 70 0 70 0 0 70 0 70 35 0 c33 0 35 2 35
35 0 33 -2 35 -35 35 -33 0 -35 -2 -35 -35z"/>
<path d="M850 315 c0 -33 2 -35 35 -35 33 0 35 2 35 35 0 33 -2 35 -35 35 -33
0 -35 -2 -35 -35z"/>
<path d="M2670 315 c0 -33 2 -35 35 -35 33 0 35 2 35 35 0 33 -2 35 -35 35
-33 0 -35 -2 -35 -35z"/>
<path d="M3370 315 c0 -33 2 -35 35 -35 33 0 35 2 35 35 0 33 -2 35 -35 35
-33 0 -35 -2 -35 -35z"/>
</g>
</svg>
